# xmcd
#
# Track frame offsets: 
#        150
#        9588
#        24538
#        34623
#        47372
#        62115
#        72387
#        82820
#        93918
#        107533
#        124356
#        134866
#        145012
#        161389
#        171545
#        182421
#
# Disc length: 2539 seconds
#
# Revision: 0
# Processed by: cddbd v1.5.2PL0 Copyright (c) Steve Scherf et al.
# Submitted via: ExactAudioCopyFreeDBPlugin 1.0
#
DISCID=d209e910
DTITLE=Mountain Top Bluegrass - Best of Mountain Top Bluegrass
DYEAR=2006
DGENRE=Bluegrass
TTITLE0=Dig A Little Deeper
TTITLE1=In His Own Time
TTITLE2=There Is Sunshine In My Soul
TTITLE3=What A Friend We Have In Jesus
TTITLE4=One Piece At A Time
TTITLE5=My Jesus I Love Thee
TTITLE6=When The Roll Is Called Up Yonder
TTITLE7=Spirit Of The Living God
TTITLE8=Take Me Home
TTITLE9=Beautiful Savior
TTITLE10=Jesus Is All The World To Me
TTITLE11=Lily Of The Valley
TTITLE12=Go With God
TTITLE13=You Gotta Move
TTITLE14=Count Your Blessings
TTITLE15=Amazing Grace
EXTD=
EXTT0=
EXTT1=
EXTT2=
EXTT3=
EXTT4=
EXTT5=
EXTT6=
EXTT7=
EXTT8=
EXTT9=
EXTT10=
EXTT11=
EXTT12=
EXTT13=
EXTT14=
EXTT15=
PLAYORDER=
